<svg version="1.1" xmlns="http://www.w3.org/2000/svg" viewBox="0 0 552.5386973259856 478.6668395996094" width="552.5386973259856" height="478.6668395996094">
  <!-- svg-source:excalidraw -->
  
  <defs>
    <style class="style-fonts">
      @font-face {
        font-family: "Virgil";
        src: url("https://excalidraw.com/Virgil.woff2");
      }
      @font-face {
        font-family: "Cascadia";
        src: url("https://excalidraw.com/Cascadia.woff2");
      }
    </style>
    
  </defs>
  <g stroke-linecap="round" transform="translate(10 10) rotate(0 266.2693486629928 229.3334197998047)"><path d="M32 0 L500.54 0 L508.04 0.5 L514.54 2 L520.04 4.5 L524.54 8 L528.04 12.5 L530.54 18 L532.04 24.5 L532.54 32 L532.54 426.67 L532.04 434.17 L530.54 440.67 L528.04 446.17 L524.54 450.67 L520.04 454.17 L514.54 456.67 L508.04 458.17 L500.54 458.67 L32 458.67 L24.5 458.17 L18 456.67 L12.5 454.17 L8 450.67 L4.5 446.17 L2 440.67 L0.5 434.17 L0 426.67 L0 32 L0.5 24.5 L2 18 L4.5 12.5 L8 8 L12.5 4.5 L18 2 L24.5 0.5 L32 0" stroke="none" stroke-width="0" fill="#ffffff"></path><path d="M32 0 M32 0 C195.17 0, 358.35 0, 500.54 0 M32 0 C197.6 0, 363.21 0, 500.54 0 M500.54 0 C521.87 0, 532.54 10.67, 532.54 32 M500.54 0 C521.87 0, 532.54 10.67, 532.54 32 M532.54 32 C532.54 168.68, 532.54 305.36, 532.54 426.67 M532.54 32 C532.54 133.9, 532.54 235.8, 532.54 426.67 M532.54 426.67 C532.54 448, 521.87 458.67, 500.54 458.67 M532.54 426.67 C532.54 448, 521.87 458.67, 500.54 458.67 M500.54 458.67 C364.81 458.67, 229.07 458.67, 32 458.67 M500.54 458.67 C361.18 458.67, 221.83 458.67, 32 458.67 M32 458.67 C10.67 458.67, 0 448, 0 426.67 M32 458.67 C10.67 458.67, 0 448, 0 426.67 M0 426.67 C0 328.69, 0 230.71, 0 32 M0 426.67 C0 329.25, 0 231.83, 0 32 M0 32 C0 10.67, 10.67 0, 32 0 M0 32 C0 10.67, 10.67 0, 32 0" stroke="#ffffff" stroke-width="4" fill="none"></path></g><g stroke-linecap="round"><g transform="translate(261.6725547607389 365.13079627440493) rotate(0 14.43332263866779 -125.10514326443877)" fill-rule="evenodd"><path d="M0 0 L-11.32 21.52 L-17.27 34.69 L-18.98 40.33 L-19.34 44.74 L-18.57 51.99 L-15.96 57.91 L-13 59.79 L-8.44 60.66 L-1.89 60.29 L7.03 58.44 L35.41 49.53 L73.67 35.33 L112.98 18.6 L130.27 10.16 L155.97 -5.38 L165.86 -12.68 L181.81 -27.54 L194.06 -44.3 L204.35 -64.82 L213.65 -91.51 L220.86 -122.74 L224.64 -154.3 L224.82 -168.89 L223.62 -181.99 L217.23 -204.97 L206.25 -225.39 L191.4 -243.51 L173.41 -259.6 L151.43 -273.8 L125.44 -285.94 L97.31 -295.82 L68.92 -303.22 L39.9 -308.1 L9.54 -310.57 L-20.81 -310.64 L-49.78 -308.29 L-78.27 -304.46 L-106.58 -298.84 L-132.49 -289.57 L-143.84 -282.99 L-153.76 -274.81 L-162.4 -264.5 L-170.1 -252.03 L-182.6 -222.89 L-191.11 -191.85 L-195.48 -163.35 L-195.48 -137.5 L-191.26 -112.3 L-183.21 -89 L-171.77 -68.88 L-164.27 -60.23 L-155.09 -52.36 L-133.61 -38.74 L-111.11 -27.57 L-75.09 -11.65 L-60.37 -7.37 L-23.95 -0.75 L0 0" stroke="none" stroke-width="0" fill="#1e1e1e" fill-rule="evenodd"></path><path d="M0 0 C-3.22 7.46, -20.52 35, -19.34 44.74 C-18.17 54.48, -20.27 65.54, 7.03 58.44 C34.34 51.34, 111.61 22.68, 144.49 2.14 C177.38 -18.41, 191.16 -34.13, 204.35 -64.82 C217.54 -95.51, 228.78 -149.53, 223.62 -181.99 C218.47 -214.45, 199.19 -239.39, 173.41 -259.6 C147.62 -279.8, 106.11 -295.1, 68.92 -303.22 C31.72 -311.33, -12.66 -313.03, -49.78 -308.29 C-86.89 -303.56, -129.48 -298.97, -153.76 -274.81 C-178.04 -250.66, -192.48 -197.67, -195.48 -163.35 C-198.48 -129.03, -189.12 -93.03, -171.77 -68.88 C-154.42 -44.72, -114.16 -29.49, -91.37 -18.41 C-68.58 -7.32, -50.26 -5.42, -35.03 -2.36 C-19.8 0.71, -5.84 -0.39, 0 0 M0 0 C-3.22 7.46, -20.52 35, -19.34 44.74 C-18.17 54.48, -20.27 65.54, 7.03 58.44 C34.34 51.34, 111.61 22.68, 144.49 2.14 C177.38 -18.41, 191.16 -34.13, 204.35 -64.82 C217.54 -95.51, 228.78 -149.53, 223.62 -181.99 C218.47 -214.45, 199.19 -239.39, 173.41 -259.6 C147.62 -279.8, 106.11 -295.1, 68.92 -303.22 C31.72 -311.33, -12.66 -313.03, -49.78 -308.29 C-86.89 -303.56, -129.48 -298.97, -153.76 -274.81 C-178.04 -250.66, -192.48 -197.67, -195.48 -163.35 C-198.48 -129.03, -189.12 -93.03, -171.77 -68.88 C-154.42 -44.72, -114.16 -29.49, -91.37 -18.41 C-68.58 -7.32, -50.26 -5.42, -35.03 -2.36 C-19.8 0.71, -5.84 -0.39, 0 0" stroke="#000" stroke-width="4" fill="none"></path></g></g><mask></mask><g stroke-linecap="round"><g transform="translate(282.21221206523944 350.51554809201616) rotate(0 -8.058050665813425 -110.58514770781039)" fill-rule="evenodd"><path d="M0 0 L-30.51 0.78 L-51.62 -0.33 L-73.79 -5.18 L-99.15 -14.13 L-127.94 -26.16 L-155.2 -41.19 L-166.7 -49.81 L-175.96 -59.16 L-183.25 -69.64 L-189.27 -81.41 L-197.66 -107.53 L-201.39 -134.82 L-200.72 -160.6 L-195.98 -185.68 L-186.95 -210.99 L-180.64 -222.94 L-173.05 -234 L-164.09 -243.85 L-153.69 -252.18 L-141.2 -259.02 L-126.37 -264.7 L-109.83 -269.31 L-92.18 -272.96 L-55.95 -277.76 L-22.54 -279.89 L7.54 -279.27 L36.62 -275.57 L64.11 -269.22 L89.44 -260.65 L113.38 -250.07 L135.93 -237.22 L155.35 -221.83 L163.35 -213.08 L169.93 -203.6 L175.17 -193.06 L179.34 -181.36 L184.47 -155.63 L185.34 -128.68 L181.99 -102.78 L174.98 -77.68 L164.11 -52.46 L148.25 -28.34 L138.09 -17.08 L126.26 -6.56 L111.04 3.94 L91.83 14.87 L70.17 25.69 L25.59 44.79 L5.73 51.97 L-10.46 56.84 L-21.46 58.86 L-24.73 58.49 L-26.73 57.05 L-27.49 51.51 L-24.86 43.31 L-19.96 33.52 L0 0" stroke="none" stroke-width="0" fill="#e9ecef" fill-rule="evenodd"></path><path d="M0 0 C-12.3 -0.86, -44.46 4.68, -73.79 -5.18 C-103.12 -15.04, -154.81 -33.26, -175.96 -59.16 C-197.11 -85.06, -204.43 -128.43, -200.72 -160.6 C-197.01 -192.77, -183.39 -232.29, -153.69 -252.18 C-124 -272.06, -63.06 -278.48, -22.54 -279.89 C17.99 -281.3, 57.36 -273.37, 89.44 -260.65 C121.52 -247.94, 154.5 -229.91, 169.93 -203.6 C185.35 -177.28, 189.26 -135.62, 181.99 -102.78 C174.71 -69.94, 160.17 -33.5, 126.26 -6.56 C92.35 20.38, -0.42 57.77, -21.46 58.86 C-42.5 59.96, -3.58 9.81, 0 0 M0 0 C-12.3 -0.86, -44.46 4.68, -73.79 -5.18 C-103.12 -15.04, -154.81 -33.26, -175.96 -59.16 C-197.11 -85.06, -204.43 -128.43, -200.72 -160.6 C-197.01 -192.77, -183.39 -232.29, -153.69 -252.18 C-124 -272.06, -63.06 -278.48, -22.54 -279.89 C17.99 -281.3, 57.36 -273.37, 89.44 -260.65 C121.52 -247.94, 154.5 -229.91, 169.93 -203.6 C185.35 -177.28, 189.26 -135.62, 181.99 -102.78 C174.71 -69.94, 160.17 -33.5, 126.26 -6.56 C92.35 20.38, -0.42 57.77, -21.46 58.86 C-42.5 59.96, -3.58 9.81, 0 0" stroke="#1e1e1e" stroke-width="4" fill="none"></path></g></g><mask></mask><g stroke-linecap="round"><g transform="translate(181.21322927604228 110.1096663196065) rotate(0 -21.530499032710054 53.09951945599988)" fill-rule="evenodd"><path d="M0 0 L4.65 9.31 L5.07 12.17 L-3.55 17.75 L-8.73 23.29 L-12.89 29.73 L-14.37 36.42 L-13.39 42.45 L-3.14 49.06 L3.25 56.03 L8.48 64.83 L10.87 75.29 L9.45 86.14 L6.37 91.56 L1.9 97.14 L-3.49 101.95 L-9.36 105.09 L-16.22 106.18 L-24.11 105.75 L-31.82 104.23 L-38.13 102.05 L-46.34 95.93 L-51.14 86.14 L-53.87 70.95 L-53.96 62.17 L-52.66 53.63 L-45.62 36.43 L-34.12 20.7 L-25.89 14.18 L0 0" stroke="none" stroke-width="0" fill="#1e1e1e" fill-rule="evenodd"></path><path d="M0 0 C0.85 2.03, 5.66 9.21, 5.07 12.17 C4.48 15.13, -0.56 14.83, -3.55 17.75 C-6.54 20.68, -11.25 25.61, -12.89 29.73 C-14.53 33.84, -15.01 39.23, -13.39 42.45 C-11.76 45.68, -6.78 45.33, -3.14 49.06 C0.51 52.79, 6.39 58.65, 8.48 64.83 C10.58 71.01, 12.43 79.43, 9.45 86.14 C6.48 92.85, -1.43 102.44, -9.36 105.09 C-17.29 107.74, -31.17 105.2, -38.13 102.05 C-45.1 98.89, -48.72 94.21, -51.14 86.14 C-53.56 78.07, -55.5 64.53, -52.66 53.63 C-49.82 42.72, -42.9 29.64, -34.12 20.7 C-25.35 11.77, -5.69 3.45, 0 0 M0 0 C0.85 2.03, 5.66 9.21, 5.07 12.17 C4.48 15.13, -0.56 14.83, -3.55 17.75 C-6.54 20.68, -11.25 25.61, -12.89 29.73 C-14.53 33.84, -15.01 39.23, -13.39 42.45 C-11.76 45.68, -6.78 45.33, -3.14 49.06 C0.51 52.79, 6.39 58.65, 8.48 64.83 C10.58 71.01, 12.43 79.43, 9.45 86.14 C6.48 92.85, -1.43 102.44, -9.36 105.09 C-17.29 107.74, -31.17 105.2, -38.13 102.05 C-45.1 98.89, -48.72 94.21, -51.14 86.14 C-53.56 78.07, -55.5 64.53, -52.66 53.63 C-49.82 42.72, -42.9 29.64, -34.12 20.7 C-25.35 11.77, -5.69 3.45, 0 0" stroke="#1e1e1e" stroke-width="4" fill="none"></path></g></g><mask></mask><g stroke-linecap="round"><g transform="translate(251.51382514906913 110.56866181957957) rotate(0 -21.530499032710054 53.09951945599988)" fill-rule="evenodd"><path d="M0 0 L4.65 9.31 L5.07 12.17 L-3.55 17.75 L-8.73 23.29 L-12.89 29.73 L-14.37 36.42 L-13.39 42.45 L-3.14 49.06 L3.25 56.03 L8.48 64.83 L10.87 75.29 L9.45 86.14 L6.37 91.56 L1.9 97.14 L-3.49 101.95 L-9.36 105.09 L-16.22 106.18 L-24.11 105.75 L-31.82 104.23 L-38.13 102.05 L-46.34 95.93 L-51.14 86.14 L-53.87 70.95 L-53.96 62.17 L-52.66 53.63 L-45.62 36.43 L-34.12 20.7 L-25.89 14.18 L0 0" stroke="none" stroke-width="0" fill="#1e1e1e" fill-rule="evenodd"></path><path d="M0 0 C0.85 2.03, 5.66 9.21, 5.07 12.17 C4.48 15.13, -0.56 14.83, -3.55 17.75 C-6.54 20.68, -11.25 25.61, -12.89 29.73 C-14.53 33.84, -15.01 39.23, -13.39 42.45 C-11.76 45.68, -6.78 45.33, -3.14 49.06 C0.51 52.79, 6.39 58.65, 8.48 64.83 C10.58 71.01, 12.43 79.43, 9.45 86.14 C6.48 92.85, -1.43 102.44, -9.36 105.09 C-17.29 107.74, -31.17 105.2, -38.13 102.05 C-45.1 98.89, -48.72 94.21, -51.14 86.14 C-53.56 78.07, -55.5 64.53, -52.66 53.63 C-49.82 42.72, -42.9 29.64, -34.12 20.7 C-25.35 11.77, -5.69 3.45, 0 0 M0 0 C0.85 2.03, 5.66 9.21, 5.07 12.17 C4.48 15.13, -0.56 14.83, -3.55 17.75 C-6.54 20.68, -11.25 25.61, -12.89 29.73 C-14.53 33.84, -15.01 39.23, -13.39 42.45 C-11.76 45.68, -6.78 45.33, -3.14 49.06 C0.51 52.79, 6.39 58.65, 8.48 64.83 C10.58 71.01, 12.43 79.43, 9.45 86.14 C6.48 92.85, -1.43 102.44, -9.36 105.09 C-17.29 107.74, -31.17 105.2, -38.13 102.05 C-45.1 98.89, -48.72 94.21, -51.14 86.14 C-53.56 78.07, -55.5 64.53, -52.66 53.63 C-49.82 42.72, -42.9 29.64, -34.12 20.7 C-25.35 11.77, -5.69 3.45, 0 0" stroke="#1e1e1e" stroke-width="4" fill="none"></path></g></g><mask></mask><g stroke-linecap="round"><g transform="translate(411.2763350014802 209.57324161775352) rotate(180.22054533341208 -21.530499032710168 53.09951945599988)" fill-rule="evenodd"><path d="M0 0 L4.65 9.31 L5.07 12.17 L-3.55 17.75 L-8.73 23.29 L-12.89 29.73 L-14.37 36.42 L-13.39 42.45 L-3.14 49.06 L3.25 56.03 L8.48 64.83 L10.87 75.29 L9.45 86.14 L6.37 91.56 L1.9 97.14 L-3.49 101.95 L-9.36 105.09 L-16.22 106.18 L-24.11 105.75 L-31.82 104.23 L-38.13 102.05 L-46.34 95.93 L-51.14 86.14 L-53.87 70.95 L-53.96 62.17 L-52.66 53.63 L-45.62 36.43 L-34.12 20.7 L-25.89 14.18 L0 0" stroke="none" stroke-width="0" fill="#1e1e1e" fill-rule="evenodd"></path><path d="M0 0 C0.85 2.03, 5.66 9.21, 5.07 12.17 C4.48 15.13, -0.56 14.83, -3.55 17.75 C-6.54 20.68, -11.25 25.61, -12.89 29.73 C-14.53 33.84, -15.01 39.23, -13.39 42.45 C-11.76 45.68, -6.78 45.33, -3.14 49.06 C0.51 52.79, 6.39 58.65, 8.48 64.83 C10.58 71.01, 12.43 79.43, 9.45 86.14 C6.48 92.85, -1.43 102.44, -9.36 105.09 C-17.29 107.74, -31.17 105.2, -38.13 102.05 C-45.1 98.89, -48.72 94.21, -51.14 86.14 C-53.56 78.07, -55.5 64.53, -52.66 53.63 C-49.82 42.72, -42.9 29.64, -34.12 20.7 C-25.35 11.77, -5.69 3.45, 0 0 M0 0 C0.85 2.03, 5.66 9.21, 5.07 12.17 C4.48 15.13, -0.56 14.83, -3.55 17.75 C-6.54 20.68, -11.25 25.61, -12.89 29.73 C-14.53 33.84, -15.01 39.23, -13.39 42.45 C-11.76 45.68, -6.78 45.33, -3.14 49.06 C0.51 52.79, 6.39 58.65, 8.48 64.83 C10.58 71.01, 12.43 79.43, 9.45 86.14 C6.48 92.85, -1.43 102.44, -9.36 105.09 C-17.29 107.74, -31.17 105.2, -38.13 102.05 C-45.1 98.89, -48.72 94.21, -51.14 86.14 C-53.56 78.07, -55.5 64.53, -52.66 53.63 C-49.82 42.72, -42.9 29.64, -34.12 20.7 C-25.35 11.77, -5.69 3.45, 0 0" stroke="#1e1e1e" stroke-width="4" fill="none"></path></g></g><mask></mask><g stroke-linecap="round"><g transform="translate(340.8648410113667 208.40460046419048) rotate(180.22054533341208 -21.530499032710168 53.09951945599988)" fill-rule="evenodd"><path d="M0 0 L4.65 9.31 L5.07 12.17 L-3.55 17.75 L-8.73 23.29 L-12.89 29.73 L-14.37 36.42 L-13.39 42.45 L-3.14 49.06 L3.25 56.03 L8.48 64.83 L10.87 75.29 L9.45 86.14 L6.37 91.56 L1.9 97.14 L-3.49 101.95 L-9.36 105.09 L-16.22 106.18 L-24.11 105.75 L-31.82 104.23 L-38.13 102.05 L-46.34 95.93 L-51.14 86.14 L-53.87 70.95 L-53.96 62.17 L-52.66 53.63 L-45.62 36.43 L-34.12 20.7 L-25.89 14.18 L0 0" stroke="none" stroke-width="0" fill="#1e1e1e" fill-rule="evenodd"></path><path d="M0 0 C0.85 2.03, 5.66 9.21, 5.07 12.17 C4.48 15.13, -0.56 14.83, -3.55 17.75 C-6.54 20.68, -11.25 25.61, -12.89 29.73 C-14.53 33.84, -15.01 39.23, -13.39 42.45 C-11.76 45.68, -6.78 45.33, -3.14 49.06 C0.51 52.79, 6.39 58.65, 8.48 64.83 C10.58 71.01, 12.43 79.43, 9.45 86.14 C6.48 92.85, -1.43 102.44, -9.36 105.09 C-17.29 107.74, -31.17 105.2, -38.13 102.05 C-45.1 98.89, -48.72 94.21, -51.14 86.14 C-53.56 78.07, -55.5 64.53, -52.66 53.63 C-49.82 42.72, -42.9 29.64, -34.12 20.7 C-25.35 11.77, -5.69 3.45, 0 0 M0 0 C0.85 2.03, 5.66 9.21, 5.07 12.17 C4.48 15.13, -0.56 14.83, -3.55 17.75 C-6.54 20.68, -11.25 25.61, -12.89 29.73 C-14.53 33.84, -15.01 39.23, -13.39 42.45 C-11.76 45.68, -6.78 45.33, -3.14 49.06 C0.51 52.79, 6.39 58.65, 8.48 64.83 C10.58 71.01, 12.43 79.43, 9.45 86.14 C6.48 92.85, -1.43 102.44, -9.36 105.09 C-17.29 107.74, -31.17 105.2, -38.13 102.05 C-45.1 98.89, -48.72 94.21, -51.14 86.14 C-53.56 78.07, -55.5 64.53, -52.66 53.63 C-49.82 42.72, -42.9 29.64, -34.12 20.7 C-25.35 11.77, -5.69 3.45, 0 0" stroke="#1e1e1e" stroke-width="4" fill="none"></path></g></g><mask></mask></svg>