<svg version="1.1" xmlns="http://www.w3.org/2000/svg" viewBox="0 0 545.3888773933026 482.4964189264264" width="545.3888773933026" height="482.4964189264264">
  <!-- svg-source:excalidraw -->
  
  <defs>
    <style class="style-fonts">
      @font-face {
        font-family: "Virgil";
        src: url("https://excalidraw.com/Virgil.woff2");
      }
      @font-face {
        font-family: "Cascadia";
        src: url("https://excalidraw.com/Cascadia.woff2");
      }
    </style>
    
  </defs>
  <g stroke-linecap="round" transform="translate(10 10) rotate(0 262.6944386966513 231.2482094632132)"><path d="M0 0 L525.39 0 L525.39 462.5 L0 462.5" stroke="none" stroke-width="0" fill="#ffffff"></path><path d="M0 0 C153.36 0, 306.72 0, 525.39 0 M0 0 C150.69 0, 301.38 0, 525.39 0 M525.39 0 C525.39 184.37, 525.39 368.73, 525.39 462.5 M525.39 0 C525.39 122.13, 525.39 244.25, 525.39 462.5 M525.39 462.5 C365.15 462.5, 204.92 462.5, 0 462.5 M525.39 462.5 C345.6 462.5, 165.81 462.5, 0 462.5 M0 462.5 C0 354.04, 0 245.58, 0 0 M0 462.5 C0 319.19, 0 175.88, 0 0" stroke="#ffffff" stroke-width="1" fill="none"></path></g><g stroke-linecap="round"><g transform="translate(262.8412523794831 348.4923425897757) rotate(0 12.58687990894083 -109.10054834093796)" fill-rule="evenodd"><path d="M0 0 L-9.87 18.76 L-16.55 35.17 L-16.19 45.34 L-13.91 50.5 L-11.34 52.15 L-7.36 52.9 L6.13 50.96 L30.88 43.2 L64.25 30.81 L98.53 16.22 L126.01 1.86 L144.65 -11.05 L158.55 -24.01 L169.23 -38.63 L178.21 -56.53 L186.32 -79.8 L192.61 -107.04 L195.9 -134.56 L196.05 -147.29 L195.01 -158.71 L189.44 -178.75 L179.86 -196.56 L166.92 -212.36 L151.22 -226.39 L132.06 -238.77 L109.39 -249.36 L84.86 -257.98 L60.1 -264.43 L34.79 -268.69 L8.32 -270.84 L-18.14 -270.9 L-43.41 -268.85 L-68.25 -265.51 L-92.94 -260.61 L-115.54 -252.53 L-125.44 -246.79 L-134.09 -239.66 L-141.63 -230.66 L-148.34 -219.79 L-159.24 -194.38 L-166.66 -167.31 L-170.47 -142.45 L-170.47 -119.91 L-166.79 -97.93 L-159.78 -77.62 L-149.79 -60.07 L-143.25 -52.52 L-135.25 -45.66 L-116.52 -33.78 L-96.89 -24.05 L-65.49 -10.16 L-52.64 -6.43 L-30.55 -2.06 L-12.2 -0.15 L0 0" stroke="none" stroke-width="0" fill="#1e1e1e" fill-rule="evenodd"></path><path d="M0 0 C-2.81 6.5, -17.89 30.53, -16.87 39.02 C-15.85 47.51, -17.68 57.16, 6.13 50.96 C29.95 44.77, 97.33 19.78, 126.01 1.86 C154.69 -16.05, 166.7 -29.76, 178.21 -56.53 C189.71 -83.29, 199.51 -130.4, 195.01 -158.71 C190.52 -187.02, 173.71 -208.77, 151.22 -226.39 C128.74 -244.01, 92.54 -257.35, 60.1 -264.43 C27.66 -271.51, -11.04 -272.98, -43.41 -268.85 C-75.77 -264.72, -112.91 -260.72, -134.09 -239.66 C-155.27 -218.59, -167.86 -172.38, -170.47 -142.45 C-173.09 -112.52, -164.92 -81.13, -149.79 -60.07 C-134.66 -39, -99.56 -25.72, -79.68 -16.05 C-59.81 -6.38, -43.83 -4.73, -30.55 -2.06 C-17.27 0.62, -5.09 -0.34, 0 0 M0 0 C-2.81 6.5, -17.89 30.53, -16.87 39.02 C-15.85 47.51, -17.68 57.16, 6.13 50.96 C29.95 44.77, 97.33 19.78, 126.01 1.86 C154.69 -16.05, 166.7 -29.76, 178.21 -56.53 C189.71 -83.29, 199.51 -130.4, 195.01 -158.71 C190.52 -187.02, 173.71 -208.77, 151.22 -226.39 C128.74 -244.01, 92.54 -257.35, 60.1 -264.43 C27.66 -271.51, -11.04 -272.98, -43.41 -268.85 C-75.77 -264.72, -112.91 -260.72, -134.09 -239.66 C-155.27 -218.59, -167.86 -172.38, -170.47 -142.45 C-173.09 -112.52, -164.92 -81.13, -149.79 -60.07 C-134.66 -39, -99.56 -25.72, -79.68 -16.05 C-59.81 -6.38, -43.83 -4.73, -30.55 -2.06 C-17.27 0.62, -5.09 -0.34, 0 0" stroke="#000" stroke-width="4" fill="none"></path></g></g><mask></mask><g stroke-linecap="round"><g transform="translate(280.75328873692786 335.7468107176999) rotate(0 -6.6316635504353485 -95.42984380649284)" fill-rule="evenodd"><path d="M-0.14 0.58 L-41.2 -0.29 L-84.2 -13.13 L-132.63 -32.55 L-153.48 -55.18 L-162.67 -62.66 L-174.01 -96.72 L-177.83 -117.4 L-178.63 -142.64 L-171.99 -158.78 L-164.41 -186.81 L-152.6 -206.11 L-130.94 -216.37 L-108.87 -229.89 L-82.91 -234.98 L-47.87 -240.31 L9.54 -245.79 L29.5 -240.19 L54.25 -233.69 L102.2 -217.83 L122.48 -204.9 L133.28 -193.03 L145.84 -176.82 L152.58 -161.99 L159.82 -138.57 L158.84 -111.72 L159.55 -87.19 L155.78 -67.9 L141.04 -42.5 L129.26 -26.65 L108.46 -8.07 L81.1 9.45 L45.3 30.45 L8.28 43.14 L-21.13 52.15 L-23.97 52.02 L-25.16 40.7 L-2.7 3.44" stroke="none" stroke-width="0" fill="#ffffff" fill-rule="evenodd"></path><path d="M1.39 -0.64 C-9.42 -1.49, -40.53 2.4, -66.36 -6.1 C-92.19 -14.6, -135.19 -29.55, -153.58 -51.66 C-171.97 -73.77, -180.2 -110.71, -176.69 -138.77 C-173.18 -166.82, -158.9 -202.86, -132.51 -219.98 C-106.12 -237.1, -53.3 -239.94, -18.35 -241.5 C16.6 -243.06, 49.21 -239.93, 77.18 -229.33 C105.15 -218.73, 135.99 -201.51, 149.47 -177.88 C162.95 -154.25, 164.72 -116.38, 158.06 -87.58 C151.4 -58.77, 138.52 -27.97, 109.5 -5.02 C80.48 17.92, 2.07 49.36, -16.07 50.11 C-34.21 50.85, -2.21 7.61, 0.63 -0.58 M-1.3 -3.45 C-11.09 -3.88, -35.36 4.19, -61.05 -3.33 C-86.74 -10.85, -136.13 -25.13, -155.46 -48.59 C-174.79 -72.05, -180.39 -115.69, -177.01 -144.1 C-173.62 -172.52, -160.83 -202.68, -135.15 -219.09 C-109.47 -235.5, -58.51 -241.57, -22.95 -242.55 C12.62 -243.53, 49.81 -235.58, 78.26 -224.97 C106.71 -214.35, 133.72 -201.4, 147.75 -178.86 C161.77 -156.32, 168.53 -118.59, 162.4 -89.73 C156.28 -60.87, 141.8 -29.3, 110.98 -5.71 C80.16 17.87, -3.63 51.13, -22.52 51.76 C-41.41 52.4, -6.45 6.81, -2.36 -1.9" stroke="#1e1e1e" stroke-width="4" fill="none"></path></g></g><mask></mask><g stroke-linecap="round"><g transform="translate(192.67502019694405 126.09584960320171) rotate(0 -18.776120543322293 46.306542945597755)" fill-rule="evenodd"><path d="M0 0 L2.68 5 L4.42 10.62 L-3.1 15.48 L-7.61 20.31 L-11.24 25.92 L-12.53 31.77 L-11.68 37.02 L-2.73 42.79 L2.84 48.86 L7.4 56.54 L9.48 65.66 L8.24 75.12 L1.66 84.71 L-3.05 88.91 L-8.16 91.65 L-14.15 92.59 L-27.75 90.89 L-33.26 88.99 L-40.41 83.66 L-44.6 75.12 L-46.98 61.87 L-45.92 46.77 L-39.78 31.77 L-29.76 18.06 L-22.58 12.37 L0 0" stroke="none" stroke-width="0" fill="#1e1e1e" fill-rule="evenodd"></path><path d="M0 0 C0.74 1.77, 4.94 8.04, 4.42 10.62 C3.91 13.2, -0.49 12.93, -3.1 15.48 C-5.71 18.03, -9.81 22.33, -11.24 25.92 C-12.67 29.51, -13.09 34.21, -11.68 37.02 C-10.26 39.83, -5.91 39.53, -2.73 42.79 C0.44 46.04, 5.57 51.15, 7.4 56.54 C9.23 61.93, 10.84 69.27, 8.24 75.12 C5.65 80.97, -1.25 89.33, -8.16 91.65 C-15.08 93.96, -27.18 91.75, -33.26 88.99 C-39.33 86.24, -42.49 82.16, -44.6 75.12 C-46.71 68.08, -48.4 56.28, -45.92 46.77 C-43.45 37.26, -37.41 25.85, -29.76 18.06 C-22.1 10.26, -4.96 3.01, 0 0 M0 0 C0.74 1.77, 4.94 8.04, 4.42 10.62 C3.91 13.2, -0.49 12.93, -3.1 15.48 C-5.71 18.03, -9.81 22.33, -11.24 25.92 C-12.67 29.51, -13.09 34.21, -11.68 37.02 C-10.26 39.83, -5.91 39.53, -2.73 42.79 C0.44 46.04, 5.57 51.15, 7.4 56.54 C9.23 61.93, 10.84 69.27, 8.24 75.12 C5.65 80.97, -1.25 89.33, -8.16 91.65 C-15.08 93.96, -27.18 91.75, -33.26 88.99 C-39.33 86.24, -42.49 82.16, -44.6 75.12 C-46.71 68.08, -48.4 56.28, -45.92 46.77 C-43.45 37.26, -37.41 25.85, -29.76 18.06 C-22.1 10.26, -4.96 3.01, 0 0" stroke="#1e1e1e" stroke-width="4" fill="none"></path></g></g><mask></mask><g stroke-linecap="round"><g transform="translate(253.98212043526075 126.49612619796358) rotate(0 -18.776120543322293 46.306542945597755)" fill-rule="evenodd"><path d="M0 0 L2.68 5 L4.42 10.62 L-3.1 15.48 L-7.61 20.31 L-11.24 25.92 L-12.53 31.77 L-11.68 37.02 L-2.73 42.79 L2.84 48.86 L7.4 56.54 L9.48 65.66 L8.24 75.12 L1.66 84.71 L-3.05 88.91 L-8.16 91.65 L-14.15 92.59 L-27.75 90.89 L-33.26 88.99 L-40.41 83.66 L-44.6 75.12 L-46.98 61.87 L-45.92 46.77 L-39.78 31.77 L-29.76 18.06 L-22.58 12.37 L0 0" stroke="none" stroke-width="0" fill="#1e1e1e" fill-rule="evenodd"></path><path d="M0 0 C0.74 1.77, 4.94 8.04, 4.42 10.62 C3.91 13.2, -0.49 12.93, -3.1 15.48 C-5.71 18.03, -9.81 22.33, -11.24 25.92 C-12.67 29.51, -13.09 34.21, -11.68 37.02 C-10.26 39.83, -5.91 39.53, -2.73 42.79 C0.44 46.04, 5.57 51.15, 7.4 56.54 C9.23 61.93, 10.84 69.27, 8.24 75.12 C5.65 80.97, -1.25 89.33, -8.16 91.65 C-15.08 93.96, -27.18 91.75, -33.26 88.99 C-39.33 86.24, -42.49 82.16, -44.6 75.12 C-46.71 68.08, -48.4 56.28, -45.92 46.77 C-43.45 37.26, -37.41 25.85, -29.76 18.06 C-22.1 10.26, -4.96 3.01, 0 0 M0 0 C0.74 1.77, 4.94 8.04, 4.42 10.62 C3.91 13.2, -0.49 12.93, -3.1 15.48 C-5.71 18.03, -9.81 22.33, -11.24 25.92 C-12.67 29.51, -13.09 34.21, -11.68 37.02 C-10.26 39.83, -5.91 39.53, -2.73 42.79 C0.44 46.04, 5.57 51.15, 7.4 56.54 C9.23 61.93, 10.84 69.27, 8.24 75.12 C5.65 80.97, -1.25 89.33, -8.16 91.65 C-15.08 93.96, -27.18 91.75, -33.26 88.99 C-39.33 86.24, -42.49 82.16, -44.6 75.12 C-46.71 68.08, -48.4 56.28, -45.92 46.77 C-43.45 37.26, -37.41 25.85, -29.76 18.06 C-22.1 10.26, -4.96 3.01, 0 0" stroke="#1e1e1e" stroke-width="4" fill="none"></path></g></g><mask></mask><g stroke-linecap="round"><g transform="translate(393.3063478363664 212.83513403086715) rotate(180.22054533341208 -18.776120543322293 46.306542945597755)" fill-rule="evenodd"><path d="M0 0 L2.68 5 L4.42 10.62 L-3.1 15.48 L-7.61 20.31 L-11.24 25.92 L-12.53 31.77 L-11.68 37.02 L-2.73 42.79 L2.84 48.86 L7.4 56.54 L9.48 65.66 L8.24 75.12 L1.66 84.71 L-3.05 88.91 L-8.16 91.65 L-14.15 92.59 L-27.75 90.89 L-33.26 88.99 L-40.41 83.66 L-44.6 75.12 L-46.98 61.87 L-45.92 46.77 L-39.78 31.77 L-29.76 18.06 L-22.58 12.37 L0 0" stroke="none" stroke-width="0" fill="#1e1e1e" fill-rule="evenodd"></path><path d="M0 0 C0.74 1.77, 4.94 8.04, 4.42 10.62 C3.91 13.2, -0.49 12.93, -3.1 15.48 C-5.71 18.03, -9.81 22.33, -11.24 25.92 C-12.67 29.51, -13.09 34.21, -11.68 37.02 C-10.26 39.83, -5.91 39.53, -2.73 42.79 C0.44 46.04, 5.57 51.15, 7.4 56.54 C9.23 61.93, 10.84 69.27, 8.24 75.12 C5.65 80.97, -1.25 89.33, -8.16 91.65 C-15.08 93.96, -27.18 91.75, -33.26 88.99 C-39.33 86.24, -42.49 82.16, -44.6 75.12 C-46.71 68.08, -48.4 56.28, -45.92 46.77 C-43.45 37.26, -37.41 25.85, -29.76 18.06 C-22.1 10.26, -4.96 3.01, 0 0 M0 0 C0.74 1.77, 4.94 8.04, 4.42 10.62 C3.91 13.2, -0.49 12.93, -3.1 15.48 C-5.71 18.03, -9.81 22.33, -11.24 25.92 C-12.67 29.51, -13.09 34.21, -11.68 37.02 C-10.26 39.83, -5.91 39.53, -2.73 42.79 C0.44 46.04, 5.57 51.15, 7.4 56.54 C9.23 61.93, 10.84 69.27, 8.24 75.12 C5.65 80.97, -1.25 89.33, -8.16 91.65 C-15.08 93.96, -27.18 91.75, -33.26 88.99 C-39.33 86.24, -42.49 82.16, -44.6 75.12 C-46.71 68.08, -48.4 56.28, -45.92 46.77 C-43.45 37.26, -37.41 25.85, -29.76 18.06 C-22.1 10.26, -4.96 3.01, 0 0" stroke="#1e1e1e" stroke-width="4" fill="none"></path></g></g><mask></mask><g stroke-linecap="round"><g transform="translate(331.9025365830711 211.8159961493974) rotate(180.22054533341208 -18.776120543322293 46.306542945597755)" fill-rule="evenodd"><path d="M0 0 L2.68 5 L4.42 10.62 L-3.1 15.48 L-7.61 20.31 L-11.24 25.92 L-12.53 31.77 L-11.68 37.02 L-2.73 42.79 L2.84 48.86 L7.4 56.54 L9.48 65.66 L8.24 75.12 L1.66 84.71 L-3.05 88.91 L-8.16 91.65 L-14.15 92.59 L-27.75 90.89 L-33.26 88.99 L-40.41 83.66 L-44.6 75.12 L-46.98 61.87 L-45.92 46.77 L-39.78 31.77 L-29.76 18.06 L-22.58 12.37 L0 0" stroke="none" stroke-width="0" fill="#1e1e1e" fill-rule="evenodd"></path><path d="M0 0 C0.74 1.77, 4.94 8.04, 4.42 10.62 C3.91 13.2, -0.49 12.93, -3.1 15.48 C-5.71 18.03, -9.81 22.33, -11.24 25.92 C-12.67 29.51, -13.09 34.21, -11.68 37.02 C-10.26 39.83, -5.91 39.53, -2.73 42.79 C0.44 46.04, 5.57 51.15, 7.4 56.54 C9.23 61.93, 10.84 69.27, 8.24 75.12 C5.65 80.97, -1.25 89.33, -8.16 91.65 C-15.08 93.96, -27.18 91.75, -33.26 88.99 C-39.33 86.24, -42.49 82.16, -44.6 75.12 C-46.71 68.08, -48.4 56.28, -45.92 46.77 C-43.45 37.26, -37.41 25.85, -29.76 18.06 C-22.1 10.26, -4.96 3.01, 0 0 M0 0 C0.74 1.77, 4.94 8.04, 4.42 10.62 C3.91 13.2, -0.49 12.93, -3.1 15.48 C-5.71 18.03, -9.81 22.33, -11.24 25.92 C-12.67 29.51, -13.09 34.21, -11.68 37.02 C-10.26 39.83, -5.91 39.53, -2.73 42.79 C0.44 46.04, 5.57 51.15, 7.4 56.54 C9.23 61.93, 10.84 69.27, 8.24 75.12 C5.65 80.97, -1.25 89.33, -8.16 91.65 C-15.08 93.96, -27.18 91.75, -33.26 88.99 C-39.33 86.24, -42.49 82.16, -44.6 75.12 C-46.71 68.08, -48.4 56.28, -45.92 46.77 C-43.45 37.26, -37.41 25.85, -29.76 18.06 C-22.1 10.26, -4.96 3.01, 0 0" stroke="#1e1e1e" stroke-width="4" fill="none"></path></g></g><mask></mask></svg>