<svg version="1.1" xmlns="http://www.w3.org/2000/svg" viewBox="0 0 550.3006897017337 459.16609739459886" width="550.3006897017337" height="459.16609739459886">
  <!-- svg-source:excalidraw -->
  
  <defs>
    <style class="style-fonts">
      @font-face {
        font-family: "Virgil";
        src: url("https://excalidraw.com/Virgil.woff2");
      }
      @font-face {
        font-family: "Cascadia";
        src: url("https://excalidraw.com/Cascadia.woff2");
      }
    </style>
    
  </defs>
  <g stroke-linecap="round" transform="translate(10 10) rotate(0 265.1503448508669 219.58304869729943)"><path d="M0 0 L530.3 0 L530.3 439.17 L0 439.17" stroke="none" stroke-width="0" fill="#ffffff"></path><path d="M0 0 C108.42 0, 216.83 0, 530.3 0 M0 0 C191.81 0, 383.63 0, 530.3 0 M530.3 0 C530.3 91.45, 530.3 182.9, 530.3 439.17 M530.3 0 C530.3 171.44, 530.3 342.87, 530.3 439.17 M530.3 439.17 C384.71 439.17, 239.11 439.17, 0 439.17 M530.3 439.17 C325.74 439.17, 121.18 439.17, 0 439.17 M0 439.17 C0 264.54, 0 89.91, 0 0 M0 439.17 C0 325.21, 0 211.25, 0 0" stroke="#ffffff" stroke-width="1" fill="none"></path></g><g stroke-linecap="round"><g transform="translate(300.9331389126103 288.1599737828467) rotate(0 -20.89083065382681 -105.83153219400356)" fill-rule="evenodd"><path d="M0 0 L96.22 0.5 L117.42 -0.76 L135.39 -3.26 L148.47 -7.34 L156.8 -13.5 L162.06 -21.64 L164.82 -31.19 L165.65 -41.55 L163.79 -62.44 L161.06 -79.69 L157.48 -92.45 L150.99 -103.05 L143.13 -111.66 L135.42 -118.45 L127.32 -122.83 L104.01 -127.26 L101.23 -128.47 L97.34 -153.15 L94.04 -159.14 L88.2 -163.83 L80.51 -167.91 L72.17 -170.64 L64.4 -171.3 L56.89 -168.61 L37.36 -154.19 L35.83 -152.5 L36.79 -151.72 L37.3 -152.85 L36.47 -154.45 L17.27 -177.9 L5.52 -190.73 L-7.13 -201 L-21.08 -208.65 L-36.6 -215.08 L-52.62 -219.35 L-68.05 -220.54 L-83.35 -218.34 L-98.84 -213.25 L-113.28 -205.61 L-125.42 -195.76 L-130.41 -189.43 L-134.87 -181.66 L-142.32 -163.84 L-153.96 -130.08 L-154.39 -127.9 L-153.72 -125.93 L-165.42 -118.64 L-177.41 -113.03 L-189.49 -106.04 L-198.3 -97.15 L-203.47 -85.21 L-206.61 -70.85 L-207.38 -56.14 L-205.45 -43.17 L-199.59 -32.02 L-190.36 -21.75 L-180.12 -12.84 L-164.12 -1.14 L-157.64 1.53 L-145.87 4.4 L-135.65 5.83 L-105.95 6.53 L-64.5 8.82 L-49.98 8.81 L-20.68 5.7 L1.61 2.31" stroke="none" stroke-width="0" fill="#a5d8ff" fill-rule="evenodd"></path><path d="M0 0 C24.74 -1.22, 121.62 5.94, 148.47 -7.34 C175.31 -20.62, 163.24 -61.18, 161.06 -79.69 C158.89 -98.21, 144.93 -110.53, 135.42 -118.45 C125.91 -126.38, 109.84 -124.8, 104.01 -127.26 C98.18 -129.71, 102.12 -127.87, 100.46 -133.19 C98.79 -138.5, 100.05 -152.78, 94.04 -159.14 C88.03 -165.49, 73.85 -172.12, 64.4 -171.3 C54.95 -170.47, 42.35 -156.59, 37.36 -154.19 C32.36 -151.79, 41.83 -149.1, 34.42 -156.9 C27 -164.7, 9.95 -190.39, -7.13 -201 C-24.21 -211.61, -48.34 -221.42, -68.05 -220.54 C-87.76 -219.67, -111.33 -210.22, -125.42 -195.76 C-139.51 -181.29, -147.34 -145.79, -152.58 -133.73 C-157.83 -121.68, -149.25 -129.54, -156.87 -123.45 C-164.49 -117.35, -190.21 -110.52, -198.3 -97.15 C-206.4 -83.77, -209.97 -58.39, -205.45 -43.17 C-200.94 -27.95, -181.15 -13.73, -171.22 -5.8 C-161.29 2.13, -153.39 2.42, -145.87 4.4 C-138.35 6.37, -132.74 5.69, -126.09 6.04 C-119.43 6.4, -118.63 6.06, -105.95 6.53 C-93.26 6.99, -67.9 9.51, -49.98 8.81 C-32.05 8.11, -6.98 3.39, 1.61 2.31 M0 0 C24.74 -1.22, 121.62 5.94, 148.47 -7.34 C175.31 -20.62, 163.24 -61.18, 161.06 -79.69 C158.89 -98.21, 144.93 -110.53, 135.42 -118.45 C125.91 -126.38, 109.84 -124.8, 104.01 -127.26 C98.18 -129.71, 102.12 -127.87, 100.46 -133.19 C98.79 -138.5, 100.05 -152.78, 94.04 -159.14 C88.03 -165.49, 73.85 -172.12, 64.4 -171.3 C54.95 -170.47, 42.35 -156.59, 37.36 -154.19 C32.36 -151.79, 41.83 -149.1, 34.42 -156.9 C27 -164.7, 9.95 -190.39, -7.13 -201 C-24.21 -211.61, -48.34 -221.42, -68.05 -220.54 C-87.76 -219.67, -111.33 -210.22, -125.42 -195.76 C-139.51 -181.29, -147.34 -145.79, -152.58 -133.73 C-157.83 -121.68, -149.25 -129.54, -156.87 -123.45 C-164.49 -117.35, -190.21 -110.52, -198.3 -97.15 C-206.4 -83.77, -209.97 -58.39, -205.45 -43.17 C-200.94 -27.95, -181.15 -13.73, -171.22 -5.8 C-161.29 2.13, -153.39 2.42, -145.87 4.4 C-138.35 6.37, -132.74 5.69, -126.09 6.04 C-119.43 6.4, -118.63 6.06, -105.95 6.53 C-93.26 6.99, -67.9 9.51, -49.98 8.81 C-32.05 8.11, -6.98 3.39, 1.61 2.31" stroke="#1971c2" stroke-width="4" fill="none"></path></g></g><mask></mask><g stroke-linecap="round"><g transform="translate(381.34052027386133 253.16203661233794) rotate(0 22.061576732868616 27.027126194705033)" fill-rule="evenodd"><path d="M0 0 L14.37 -9.72 L19.94 -11.22 L25.65 -10.45 L31.78 -8.24 L37.4 -4.72 L41.59 -0.04 L44.4 6.18 L46.22 13.88 L46.67 22.26 L45.4 30.52 L41.8 39.56 L36.23 49.43 L29.78 58.07 L23.52 63.42 L16.97 65.21 L9.81 64.46 L3.36 60.98 L-1.04 54.57 L-2.56 42.86 L0 0" stroke="none" stroke-width="0" fill="#ffec99" fill-rule="evenodd"></path><path d="M0 0 C3.32 -1.87, 13.01 -11.21, 19.94 -11.22 C26.88 -11.22, 37.35 -7, 41.59 -0.04 C45.84 6.92, 48.41 19.94, 45.4 30.52 C42.38 41.1, 31.26 59.41, 23.52 63.42 C15.78 67.42, 2.88 65.14, -1.04 54.57 C-4.96 44, -0.17 9.1, 0 0 M0 0 C3.32 -1.87, 13.01 -11.21, 19.94 -11.22 C26.88 -11.22, 37.35 -7, 41.59 -0.04 C45.84 6.92, 48.41 19.94, 45.4 30.52 C42.38 41.1, 31.26 59.41, 23.52 63.42 C15.78 67.42, 2.88 65.14, -1.04 54.57 C-4.96 44, -0.17 9.1, 0 0" stroke="#ffd43b" stroke-width="4" fill="none"></path></g></g><mask></mask><g stroke-linecap="round"><g transform="translate(389.6848095595076 246.5630881173281) rotate(0 -113.42839513069725 29.54998802669695)" fill-rule="evenodd"><path d="M0 0 L0.01 -23.65 L-122.15 -23.6 L-139.22 -47.03 L-226.41 -47.29 L-226.86 106.39 L-19.13 105.05 L0 0" stroke="none" stroke-width="0" fill="#ffec99" fill-rule="evenodd"></path><path d="M0 0 C0 -5.01, 0 -10.02, 0.01 -23.65 M0 0 C0 -7.53, 0 -15.06, 0.01 -23.65 M0.01 -23.65 C-31.36 -23.64, -62.72 -23.62, -122.15 -23.6 M0.01 -23.65 C-42.23 -23.63, -84.46 -23.62, -122.15 -23.6 M-122.15 -23.6 C-128.11 -31.78, -134.07 -39.96, -139.22 -47.03 M-122.15 -23.6 C-127.02 -30.29, -131.9 -36.97, -139.22 -47.03 M-139.22 -47.03 C-161.14 -47.09, -183.05 -47.16, -226.41 -47.29 M-139.22 -47.03 C-171.36 -47.13, -203.5 -47.22, -226.41 -47.29 M-226.41 -47.29 C-226.54 -4.21, -226.67 38.86, -226.86 106.39 M-226.41 -47.29 C-226.58 10.52, -226.75 68.34, -226.86 106.39 M-226.86 106.39 C-159.66 105.96, -92.45 105.52, -19.13 105.05 M-226.86 106.39 C-149.29 105.89, -71.71 105.39, -19.13 105.05 M-19.13 105.05 C-12.35 67.82, -5.57 30.58, 0 0 M-19.13 105.05 C-12.54 68.89, -5.96 32.72, 0 0 M0 0 C0 0, 0 0, 0 0 M0 0 C0 0, 0 0, 0 0" stroke="#ffd43b" stroke-width="4" fill="none"></path></g></g><mask></mask></svg>