<svg version="1.1" xmlns="http://www.w3.org/2000/svg" viewBox="0 0 552.5386973259856 478.6668395996094" width="552.5386973259856" height="478.6668395996094">
  <!-- svg-source:excalidraw -->
  
  <defs>
    <style class="style-fonts">
      @font-face {
        font-family: "Virgil";
        src: url("https://excalidraw.com/Virgil.woff2");
      }
      @font-face {
        font-family: "Cascadia";
        src: url("https://excalidraw.com/Cascadia.woff2");
      }
    </style>
    
  </defs>
  <g stroke-linecap="round" transform="translate(10 10) rotate(0 266.2693486629928 229.3334197998047)"><path d="M32 0 L500.54 0 L508.04 0.5 L514.54 2 L520.04 4.5 L524.54 8 L528.04 12.5 L530.54 18 L532.04 24.5 L532.54 32 L532.54 426.67 L532.04 434.17 L530.54 440.67 L528.04 446.17 L524.54 450.67 L520.04 454.17 L514.54 456.67 L508.04 458.17 L500.54 458.67 L32 458.67 L24.5 458.17 L18 456.67 L12.5 454.17 L8 450.67 L4.5 446.17 L2 440.67 L0.5 434.17 L0 426.67 L0 32 L0.5 24.5 L2 18 L4.5 12.5 L8 8 L12.5 4.5 L18 2 L24.5 0.5 L32 0" stroke="none" stroke-width="0" fill="#ffffff"></path><path d="M32 0 M32 0 C195.17 0, 358.35 0, 500.54 0 M32 0 C197.6 0, 363.21 0, 500.54 0 M500.54 0 C521.87 0, 532.54 10.67, 532.54 32 M500.54 0 C521.87 0, 532.54 10.67, 532.54 32 M532.54 32 C532.54 168.68, 532.54 305.36, 532.54 426.67 M532.54 32 C532.54 133.9, 532.54 235.8, 532.54 426.67 M532.54 426.67 C532.54 448, 521.87 458.67, 500.54 458.67 M532.54 426.67 C532.54 448, 521.87 458.67, 500.54 458.67 M500.54 458.67 C364.81 458.67, 229.07 458.67, 32 458.67 M500.54 458.67 C361.18 458.67, 221.83 458.67, 32 458.67 M32 458.67 C10.67 458.67, 0 448, 0 426.67 M32 458.67 C10.67 458.67, 0 448, 0 426.67 M0 426.67 C0 328.69, 0 230.71, 0 32 M0 426.67 C0 329.25, 0 231.83, 0 32 M0 32 C0 10.67, 10.67 0, 32 0 M0 32 C0 10.67, 10.67 0, 32 0" stroke="#ffffff" stroke-width="4" fill="none"></path></g><g stroke-linecap="round" transform="translate(167.33413694945966 46.392262050084355) rotate(0 96.27321044347957 89.90799254804779)"><path d="M44.11 13.1 C53.11 5.9, 67.96 1.82, 79.97 0.15 C91.98 -1.52, 104.27 0.52, 116.18 3.07 C128.09 5.63, 141.47 8.78, 151.44 15.5 C161.42 22.22, 169.74 33.67, 176.03 43.37 C182.32 53.07, 186.82 62.66, 189.19 73.71 C191.55 84.76, 192.52 98.68, 190.25 109.68 C187.98 120.68, 182.44 130.53, 175.56 139.73 C168.68 148.93, 159.22 158.18, 148.99 164.88 C138.76 171.57, 126.26 177.99, 114.16 179.88 C102.06 181.78, 88.35 179.07, 76.39 176.25 C64.43 173.43, 52.79 169.52, 42.4 162.96 C32.02 156.4, 21.12 146.23, 14.08 136.89 C7.04 127.54, 2.14 117.76, 0.18 106.9 C-1.79 96.05, -0.86 82.95, 2.31 71.75 C5.48 60.56, 8.98 50.73, 19.18 39.72 C29.39 28.71, 52.93 11.85, 63.53 5.71 C74.13 -0.43, 82.46 1.72, 82.78 2.9 M129.44 6.73 C141 8.65, 151.58 15.73, 161.06 23.21 C170.55 30.68, 181.51 40.9, 186.33 51.57 C191.15 62.23, 189.8 75.3, 189.98 87.21 C190.15 99.11, 191.47 112.88, 187.4 123.01 C183.33 133.15, 174.39 139.68, 165.57 148.01 C156.76 156.33, 144.86 167.47, 134.53 172.97 C124.2 178.48, 114.96 180.37, 103.6 181.02 C92.23 181.68, 78.55 181.23, 66.34 176.9 C54.14 172.56, 40.08 162.8, 30.38 155.02 C20.69 147.25, 13.42 140.54, 8.19 130.23 C2.95 119.93, -0.31 105.13, -1.03 93.18 C-1.75 81.23, -0.69 68.72, 3.87 58.53 C8.42 48.34, 17.31 40.03, 26.33 32.04 C35.34 24.04, 47.08 16.35, 57.95 10.54 C68.83 4.73, 79.3 -2.35, 91.58 -2.84 C103.86 -3.33, 125.76 5.56, 131.63 7.61 C137.5 9.66, 128.24 8.19, 126.8 9.48" stroke="none" stroke-width="0" fill="#1e1e1e"></path><path d="M43.9 13.8 C52.53 6.64, 66.21 4.32, 77.74 2.41 C89.28 0.5, 101.05 0.21, 113.11 2.34 C125.18 4.48, 139.85 9.18, 150.13 15.22 C160.42 21.27, 167.77 29.35, 174.83 38.61 C181.89 47.87, 189.83 59.6, 192.52 70.78 C195.21 81.96, 193.51 94.45, 190.98 105.68 C188.44 116.91, 184.38 128.57, 177.32 138.15 C170.26 147.74, 158.83 156.7, 148.62 163.18 C138.41 169.67, 127.67 174.86, 116.06 177.07 C104.45 179.29, 90.89 178.8, 78.96 176.48 C67.04 174.15, 54.76 169.49, 44.49 163.13 C34.23 156.77, 24.18 147.67, 17.37 138.3 C10.56 128.94, 6.43 118.07, 3.63 106.93 C0.82 95.79, -1.66 82.69, 0.55 71.46 C2.76 60.23, 2.43 51.65, 16.91 39.56 C31.39 27.47, 68.1 3.91, 87.42 -1.09 C106.74 -6.09, 132.53 7.97, 132.84 9.56 M132.18 8.97 C142.97 11.04, 153.75 16.22, 162.12 23.32 C170.49 30.43, 177.69 40.82, 182.41 51.62 C187.14 62.42, 190.23 76.36, 190.47 88.13 C190.71 99.89, 187.75 111.07, 183.87 122.21 C179.98 133.35, 174.9 146.86, 167.16 154.99 C159.42 163.11, 149.21 167.03, 137.41 170.96 C125.62 174.88, 109.37 177.8, 96.37 178.54 C83.36 179.28, 70.23 179.74, 59.38 175.37 C48.53 171.01, 39.65 160.86, 31.26 152.35 C22.87 143.84, 14.26 134.46, 9.04 124.3 C3.81 114.14, 0.34 102.56, -0.11 91.41 C-0.56 80.26, 1.87 68.21, 6.32 57.4 C10.78 46.59, 17.89 34.49, 26.61 26.56 C35.32 18.62, 47.23 14.59, 58.61 9.81 C69.99 5.02, 82.48 -1.11, 94.9 -2.16 C107.32 -3.2, 126.76 2.11, 133.14 3.53 C139.53 4.95, 134.27 4.92, 133.23 6.36" stroke="#000" stroke-width="4" fill="none"></path></g><g stroke-linecap="round"><g transform="translate(67.08279279760404 429.8936900847714) rotate(0 211.74109103320905 -78.2669663059545)" fill-rule="evenodd"><path d="M-3.14 -0.52 L4.28 -45.17 L7.18 -61.74 L29.98 -97.6 L43.24 -111.93 L64.1 -127.61 L81.15 -132.96 L104.67 -139.69 L212.3 -154.97 L250.38 -156.01 L281.68 -155.44 L310.65 -148.75 L341.28 -137.22 L366.76 -125.01 L385.74 -114.77 L405.9 -87.59 L415.24 -60.86 L430.2 -30.54 L430.76 -10.24 L428.69 -6.72 L0.37 3.09" stroke="none" stroke-width="0" fill="#1e1e1e" fill-rule="evenodd"></path><path d="M-0.56 -1.59 C1.92 -11.48, 1.53 -41.04, 12.32 -61.58 C23.1 -82.13, 40.91 -110.47, 64.17 -124.86 C87.42 -139.24, 115.82 -142.39, 151.83 -147.9 C187.84 -153.41, 240.95 -164.25, 280.2 -157.94 C319.46 -151.62, 363.03 -132.77, 387.35 -109.98 C411.67 -87.19, 428.53 -38.54, 426.13 -21.19 C423.72 -3.84, 444.27 -8.97, 372.92 -5.87 C301.57 -2.76, 59.99 -3.41, -1.97 -2.56 M-4.32 3.72 C-1.71 -5.72, 0.28 -37.29, 11.58 -59.42 C22.88 -81.55, 40.12 -113.46, 63.5 -129.06 C86.89 -144.66, 116.36 -148.33, 151.91 -153.02 C187.46 -157.72, 238.39 -164.12, 276.8 -157.23 C315.22 -150.34, 357.29 -133.77, 382.4 -111.67 C407.51 -89.58, 429.39 -42.33, 427.46 -24.64 C425.53 -6.95, 441.77 -9.88, 370.81 -5.54 C299.84 -1.19, 62.86 0.87, 1.66 1.42" stroke="#000" stroke-width="4" fill="none"></path></g></g><mask></mask></svg>